<mxfile host="65bd71144e">
    <diagram id="iqNBcv5D5UAEnluReGte" name="Page-1">
        <mxGraphModel dx="2824" dy="867" grid="1" gridSize="10" guides="1" tooltips="1" connect="1" arrows="1" fold="1" page="1" pageScale="1" pageWidth="1169" pageHeight="827" math="0" shadow="0">
            <root>
                <mxCell id="0"/>
                <mxCell id="1" parent="0"/>
                <mxCell id="63" value="" style="endArrow=none;dashed=1;html=1;strokeColor=#808080;" parent="1" target="58" edge="1">
                    <mxGeometry width="50" height="50" relative="1" as="geometry">
                        <mxPoint x="200" y="130" as="sourcePoint"/>
                        <mxPoint x="1290" y="130" as="targetPoint"/>
                    </mxGeometry>
                </mxCell>
                <mxCell id="43" value="" style="endArrow=none;dashed=1;html=1;strokeColor=#808080;" parent="1" edge="1">
                    <mxGeometry width="50" height="50" relative="1" as="geometry">
                        <mxPoint x="200" y="210" as="sourcePoint"/>
                        <mxPoint x="1160" y="210" as="targetPoint"/>
                    </mxGeometry>
                </mxCell>
                <mxCell id="41" value="" style="endArrow=none;dashed=1;html=1;strokeColor=#808080;startArrow=none;" parent="1" edge="1" source="93">
                    <mxGeometry width="50" height="50" relative="1" as="geometry">
                        <mxPoint x="200" y="170" as="sourcePoint"/>
                        <mxPoint x="1160" y="170" as="targetPoint"/>
                    </mxGeometry>
                </mxCell>
                <mxCell id="57" value="" style="endArrow=none;dashed=1;html=1;startArrow=none;" parent="1" source="58" edge="1">
                    <mxGeometry width="50" height="50" relative="1" as="geometry">
                        <mxPoint x="200" y="130" as="sourcePoint"/>
                        <mxPoint x="1120" y="130" as="targetPoint"/>
                    </mxGeometry>
                </mxCell>
                <mxCell id="20" style="edgeStyle=entityRelationEdgeStyle;html=1;endArrow=none;endFill=0;strokeWidth=3;startArrow=none;strokeColor=#999999;entryX=0.5;entryY=0.5;entryDx=0;entryDy=0;entryPerimeter=0;" parent="1" source="62" target="91" edge="1">
                    <mxGeometry relative="1" as="geometry">
                        <mxPoint x="780" y="210" as="targetPoint"/>
                    </mxGeometry>
                </mxCell>
                <mxCell id="35" value="Features" style="text;html=1;strokeColor=none;fillColor=none;align=right;verticalAlign=middle;whiteSpace=wrap;rounded=0;shadow=0;rotation=0;fontColor=#B3B3B3;fontSize=32;" parent="1" vertex="1">
                    <mxGeometry x="79.07" y="180" width="100.93" height="20" as="geometry"/>
                </mxCell>
                <mxCell id="61" style="edgeStyle=entityRelationEdgeStyle;html=1;strokeColor=#999999;strokeWidth=3;endArrow=none;endFill=0;" parent="1" target="62" edge="1">
                    <mxGeometry relative="1" as="geometry">
                        <mxPoint x="590" y="210" as="targetPoint"/>
                        <mxPoint x="520" y="130" as="sourcePoint"/>
                    </mxGeometry>
                </mxCell>
                <mxCell id="64" style="edgeStyle=entityRelationEdgeStyle;html=1;strokeColor=#999999;strokeWidth=3;endArrow=none;endFill=0;" parent="1" source="40" target="58" edge="1">
                    <mxGeometry relative="1" as="geometry"/>
                </mxCell>
                <mxCell id="40" value="" style="ellipse;whiteSpace=wrap;html=1;aspect=fixed;strokeWidth=3;fillColor=#CCCCCC;strokeColor=#4D4D4D;" parent="1" vertex="1">
                    <mxGeometry x="390" y="160" width="20" height="20" as="geometry"/>
                </mxCell>
                <mxCell id="52" value="Release" style="text;html=1;strokeColor=none;fillColor=none;align=right;verticalAlign=middle;whiteSpace=wrap;rounded=0;shadow=0;rotation=0;fontColor=#B3B3B3;fontSize=32;" parent="1" vertex="1">
                    <mxGeometry x="82.54" y="70" width="97.46" height="20" as="geometry"/>
                </mxCell>
                <mxCell id="55" value="Main (Trunk)" style="text;html=1;strokeColor=none;fillColor=none;align=right;verticalAlign=middle;whiteSpace=wrap;rounded=0;shadow=0;rotation=0;fontColor=#E6E6E6;fontSize=32;fontStyle=1" parent="1" vertex="1">
                    <mxGeometry x="-30" y="120" width="210" height="20" as="geometry"/>
                </mxCell>
                <mxCell id="59" style="edgeStyle=entityRelationEdgeStyle;html=1;strokeColor=#999999;strokeWidth=12;endArrow=none;endFill=0;" parent="1" source="56" target="58" edge="1">
                    <mxGeometry relative="1" as="geometry"/>
                </mxCell>
                <mxCell id="60" style="edgeStyle=entityRelationEdgeStyle;html=1;entryX=0;entryY=0.5;entryDx=0;entryDy=0;strokeColor=#999999;strokeWidth=3;endArrow=none;endFill=0;" parent="1" source="56" target="40" edge="1">
                    <mxGeometry relative="1" as="geometry"/>
                </mxCell>
                <mxCell id="62" value="" style="ellipse;whiteSpace=wrap;html=1;aspect=fixed;strokeWidth=3;fillColor=#CCCCCC;strokeColor=#4D4D4D;" parent="1" vertex="1">
                    <mxGeometry x="630" y="200" width="20" height="20" as="geometry"/>
                </mxCell>
                <mxCell id="76" style="edgeStyle=entityRelationEdgeStyle;html=1;entryX=0;entryY=0.5;entryDx=0;entryDy=0;strokeColor=#999999;strokeWidth=3;endArrow=none;endFill=0;" parent="1" source="98" target="51" edge="1">
                    <mxGeometry relative="1" as="geometry"/>
                </mxCell>
                <mxCell id="82" value="" style="edgeStyle=entityRelationEdgeStyle;html=1;strokeColor=#999999;strokeWidth=12;endArrow=none;endFill=0;startArrow=none;" parent="1" source="98" edge="1">
                    <mxGeometry relative="1" as="geometry">
                        <mxPoint x="1160" y="130" as="targetPoint"/>
                        <mxPoint x="570" y="130" as="sourcePoint"/>
                    </mxGeometry>
                </mxCell>
                <mxCell id="92" value="" style="edgeStyle=entityRelationEdgeStyle;html=1;strokeColor=#999999;strokeWidth=12;endArrow=none;endFill=0;" edge="1" parent="1" source="58" target="91">
                    <mxGeometry relative="1" as="geometry">
                        <mxPoint x="1190" y="130" as="targetPoint"/>
                        <mxPoint x="530" y="130" as="sourcePoint"/>
                    </mxGeometry>
                </mxCell>
                <mxCell id="58" value="" style="ellipse;whiteSpace=wrap;html=1;aspect=fixed;strokeWidth=3;fillColor=#CCCCCC;strokeColor=#4D4D4D;" parent="1" vertex="1">
                    <mxGeometry x="510" y="120" width="20" height="20" as="geometry"/>
                </mxCell>
                <mxCell id="94" value="" style="endArrow=none;dashed=1;html=1;strokeColor=#808080;" edge="1" parent="1" target="93">
                    <mxGeometry width="50" height="50" relative="1" as="geometry">
                        <mxPoint x="200" y="170" as="sourcePoint"/>
                        <mxPoint x="1240" y="170" as="targetPoint"/>
                    </mxGeometry>
                </mxCell>
                <mxCell id="93" value="" style="ellipse;whiteSpace=wrap;html=1;aspect=fixed;strokeWidth=3;fillColor=#CCCCCC;strokeColor=#4D4D4D;" vertex="1" parent="1">
                    <mxGeometry x="870" y="160" width="20" height="20" as="geometry"/>
                </mxCell>
                <mxCell id="96" style="edgeStyle=entityRelationEdgeStyle;html=1;endArrow=none;endFill=0;strokeWidth=3;startArrow=none;strokeColor=#999999;exitX=0.5;exitY=0.5;exitDx=0;exitDy=0;exitPerimeter=0;" edge="1" parent="1" source="91" target="93">
                    <mxGeometry relative="1" as="geometry">
                        <mxPoint x="780" y="140" as="targetPoint"/>
                        <mxPoint x="660" y="220" as="sourcePoint"/>
                    </mxGeometry>
                </mxCell>
                <mxCell id="91" value="" style="ellipse;whiteSpace=wrap;html=1;aspect=fixed;strokeWidth=3;fillColor=#CCCCCC;strokeColor=#4D4D4D;" vertex="1" parent="1">
                    <mxGeometry x="750" y="120" width="20" height="20" as="geometry"/>
                </mxCell>
                <mxCell id="99" value="" style="edgeStyle=entityRelationEdgeStyle;html=1;strokeColor=#999999;strokeWidth=12;endArrow=none;endFill=0;startArrow=none;" edge="1" parent="1" source="91" target="98">
                    <mxGeometry relative="1" as="geometry">
                        <mxPoint x="1190" y="130" as="targetPoint"/>
                        <mxPoint x="780" y="130" as="sourcePoint"/>
                    </mxGeometry>
                </mxCell>
                <mxCell id="100" style="edgeStyle=entityRelationEdgeStyle;html=1;strokeColor=#999999;strokeWidth=3;endArrow=none;endFill=0;" edge="1" parent="1" source="93" target="98">
                    <mxGeometry relative="1" as="geometry">
                        <mxPoint x="860" y="300" as="sourcePoint"/>
                        <mxPoint x="960" y="220" as="targetPoint"/>
                    </mxGeometry>
                </mxCell>
                <mxCell id="98" value="" style="ellipse;whiteSpace=wrap;html=1;aspect=fixed;strokeWidth=3;fillColor=#CCCCCC;strokeColor=#4D4D4D;" vertex="1" parent="1">
                    <mxGeometry x="990" y="120" width="20" height="20" as="geometry"/>
                </mxCell>
                <mxCell id="101" value="" style="endArrow=none;dashed=1;html=1;strokeColor=#808080;" edge="1" parent="1" target="51">
                    <mxGeometry width="50" height="50" relative="1" as="geometry">
                        <mxPoint x="199" y="79.67000000000007" as="sourcePoint"/>
                        <mxPoint x="1240" y="80" as="targetPoint"/>
                    </mxGeometry>
                </mxCell>
                <mxCell id="51" value="" style="ellipse;whiteSpace=wrap;html=1;aspect=fixed;strokeWidth=3;fillColor=#CCCCCC;strokeColor=#4D4D4D;" parent="1" vertex="1">
                    <mxGeometry x="1110" y="70" width="20" height="20" as="geometry"/>
                </mxCell>
                <mxCell id="102" style="edgeStyle=entityRelationEdgeStyle;html=1;strokeColor=#999999;strokeWidth=12;endArrow=none;endFill=0;entryX=0;entryY=0.5;entryDx=0;entryDy=0;" edge="1" parent="1" target="56">
                    <mxGeometry relative="1" as="geometry">
                        <mxPoint x="200" y="130" as="sourcePoint"/>
                        <mxPoint x="280" y="130" as="targetPoint"/>
                    </mxGeometry>
                </mxCell>
                <mxCell id="56" value="" style="ellipse;whiteSpace=wrap;html=1;aspect=fixed;strokeWidth=3;fillColor=#CCCCCC;strokeColor=#4D4D4D;" parent="1" vertex="1">
                    <mxGeometry x="270" y="120" width="20" height="20" as="geometry"/>
                </mxCell>
            </root>
        </mxGraphModel>
    </diagram>
</mxfile>